<svg width="69" height="57" viewBox="0 0 69 57" fill="none" xmlns="http://www.w3.org/2000/svg">
<path d="M39.1496 17.87L37.8396 16.87C37.6348 16.7043 37.3729 16.626 37.1108 16.6522C36.8486 16.6784 36.6074 16.807 36.4396 17.01L18.3096 37.83L18.5896 38.14L23.0796 34C22.9299 33.9398 22.8061 33.8291 22.7297 33.6871C22.6532 33.5451 22.6289 33.3807 22.661 33.2227C22.6931 33.0646 22.7795 32.9227 22.9053 32.8218C23.0311 32.7208 23.1883 32.6671 23.3496 32.67C23.495 32.67 23.6366 32.7166 23.7536 32.803C23.8706 32.8894 23.9568 33.011 23.9996 33.15L29.9196 27.66C30.0102 27.587 30.1231 27.5472 30.2396 27.5472C30.356 27.5472 30.4689 27.587 30.5596 27.66L30.8596 27.88C30.9611 27.9528 31.0861 27.9849 31.2101 27.9701C31.3341 27.9553 31.4481 27.8946 31.5296 27.8L39.2696 19.12C39.3518 19.0339 39.4146 18.931 39.4536 18.8184C39.4925 18.7058 39.5068 18.5862 39.4954 18.4676C39.484 18.349 39.4473 18.2343 39.3876 18.1312C39.3279 18.028 39.2467 17.939 39.1496 17.87Z" fill="#303030"/>
<path d="M47.6703 23.73C43.7028 26.553 39.2581 28.6364 34.5503 29.88C29.8777 31.0683 25.0965 31.7786 20.2803 32C20.3773 32.7102 20.5516 33.4077 20.8003 34.08C23.5203 36.54 44.0003 32.34 48.0003 27.48C48.8503 26.47 47.6703 23.73 47.6703 23.73ZM23.3503 34C23.2158 34 23.0843 33.9601 22.9725 33.8854C22.8607 33.8107 22.7735 33.7045 22.722 33.5802C22.6706 33.4559 22.6571 33.3192 22.6833 33.1873C22.7096 33.0554 22.7743 32.9342 22.8694 32.8391C22.9645 32.744 23.0857 32.6793 23.2176 32.653C23.3495 32.6268 23.4862 32.6403 23.6105 32.6917C23.7348 32.7432 23.841 32.8304 23.9157 32.9422C23.9904 33.054 24.0303 33.1855 24.0303 33.32C24.0316 33.4097 24.015 33.4987 23.9813 33.5818C23.9476 33.6649 23.8975 33.7404 23.8341 33.8038C23.7707 33.8672 23.6952 33.9173 23.6121 33.951C23.529 33.9847 23.4399 34.0013 23.3503 34Z" fill="#303030"/>
<path d="M4.0003 22.2899L4.1603 21.5999L6.7603 22.1899C6.9748 22.5861 7.10743 23.0214 7.1503 23.4699C7.19993 23.945 7.16951 24.425 7.0603 24.8899C6.93085 25.5352 6.63431 26.1352 6.2003 26.6299C5.78739 27.097 5.25497 27.4428 4.6603 27.6299C4.04739 27.8189 3.39551 27.8431 2.7703 27.6999C2.14372 27.5646 1.56617 27.2603 1.1003 26.8199C0.641569 26.3969 0.312165 25.8526 0.150299 25.2499C-0.0292664 24.5954 -0.0292664 23.9045 0.150299 23.2499C0.257777 22.76 0.450726 22.2929 0.720299 21.8699C0.975438 21.4853 1.31814 21.1665 1.7203 20.9399L2.0803 21.4899C1.7356 21.7016 1.43972 21.9839 1.21218 22.3183C0.984643 22.6527 0.830626 23.0316 0.760299 23.4299C0.636286 23.9473 0.646613 24.4877 0.790299 24.9999C0.924669 25.4863 1.1912 25.9259 1.5603 26.2699C1.93968 26.6367 2.41433 26.8896 2.9303 26.9999C3.43063 27.1404 3.95997 27.1404 4.4603 26.9999C4.93959 26.8417 5.37007 26.5628 5.7103 26.1899C6.05994 25.7873 6.3009 25.3019 6.4103 24.7799C6.57483 24.1468 6.53279 23.4776 6.2903 22.8699L4.0003 22.2899Z" fill="#303030"/>
<path d="M9.65992 16.0001L7.32992 19.1101L8.32992 20.9001L7.86992 21.5201L4.16992 14.7701L4.59992 14.1801L12.1299 15.8001L11.6599 16.4201L9.65992 16.0001ZM8.99992 15.8401L4.99992 14.9401L6.99992 18.5301L8.99992 15.8401Z" fill="#303030"/>
<path d="M9 9.54998L9.6 9.09998L13.41 14.2L16.55 11.85L16.93 12.36L13.2 15.15L9 9.54998Z" fill="#303030"/>
<path d="M15.2998 5.37996L15.9698 5.07996L18.6098 10.86L22.1798 9.23996L22.4398 9.81996L18.1998 11.75L15.2998 5.37996Z" fill="#303030"/>
<path d="M28.48 7.68003L28.63 8.31003L23.81 9.44003L22.21 2.62003L26.89 1.53003L27.03 2.15003L23.03 3.08003L23.6 5.50003L27.12 4.67003L27.27 5.29003L23.74 6.11003L24.34 8.64003L28.48 7.68003Z" fill="#303030"/>
<path d="M35.3498 7.92997L33.6798 5.72997C33.4933 5.74029 33.3064 5.74029 33.1198 5.72997L31.2398 5.78997L31.3098 8.00997H30.5698L30.3398 1.00997L32.9998 0.999969C33.7519 0.930511 34.504 1.13272 35.1198 1.56997C35.3794 1.77896 35.588 2.04418 35.7301 2.3456C35.8721 2.64702 35.9439 2.97678 35.9398 3.30997C35.969 3.80416 35.8394 4.29473 35.5698 4.70997C35.2825 5.10853 34.8765 5.40603 34.4098 5.55997L36.1598 7.89997L35.3498 7.92997ZM34.6498 4.63997C34.8296 4.47531 34.9691 4.27154 35.0575 4.04439C35.1459 3.81725 35.1809 3.57281 35.1598 3.32997C35.165 3.08584 35.1146 2.84374 35.0124 2.62198C34.9101 2.40022 34.7588 2.20461 34.5698 2.04997C34.1089 1.73745 33.5547 1.59271 32.9998 1.63997L31.0998 1.70997L31.2198 5.20997L33.0798 5.14997C33.647 5.17096 34.2033 4.99026 34.6498 4.63997Z" fill="#303030"/>
<path d="M40.6396 6.07L40.2796 8.46L39.5496 8.35L39.9196 6L37.8496 1L38.6296 1.12L40.3996 5.38L43.3996 1.85L44.0996 2L40.6396 6.07Z" fill="#303030"/>
<path d="M50.5298 5.65005L51.3998 6.78005L51.0198 7.08005L50.1498 5.92005L49.5998 7.23005L49.1798 7.05005L49.7398 5.74005L48.2998 5.93005V5.45005L49.7198 5.29005L48.8398 4.16005L49.2298 3.86005L49.9998 5.00005L50.5398 3.68005L50.9698 3.86005L50.4598 5.20005L51.8998 5.00005V5.49005L50.5298 5.65005Z" fill="#303030"/>
<path d="M53.8704 13.71C53.6343 13.346 53.487 12.9315 53.4404 12.5L54.0304 12.24C54.0747 12.6364 54.2043 13.0185 54.4104 13.36C54.6338 13.743 54.9253 14.0819 55.2704 14.36C55.6269 14.7013 56.0817 14.9217 56.5704 14.99C56.747 15.0064 56.9249 14.9794 57.0887 14.9115C57.2525 14.8435 57.3973 14.7366 57.5104 14.6C57.5934 14.5085 57.6566 14.4009 57.6962 14.284C57.7357 14.167 57.7508 14.0431 57.7404 13.92C57.7074 13.6763 57.6257 13.4417 57.5004 13.23C57.3125 12.9231 57.1089 12.626 56.8904 12.34C56.6242 11.9912 56.3836 11.6236 56.1704 11.24C56.0075 10.953 55.9182 10.63 55.9104 10.3C55.9097 9.92946 56.049 9.5723 56.3004 9.30004C56.5184 9.03617 56.8059 8.83869 57.1304 8.73004C57.493 8.62531 57.8778 8.62531 58.2404 8.73004C58.7076 8.88282 59.1394 9.12763 59.5104 9.45004C59.8183 9.70611 60.0907 10.002 60.3204 10.33C60.5329 10.6342 60.6918 10.9724 60.7904 11.33L60.2204 11.63C60.121 11.2967 59.9727 10.9799 59.7804 10.69C59.5889 10.4312 59.3635 10.1991 59.1104 10C58.7593 9.66028 58.3058 9.44587 57.8204 9.39004C57.642 9.37512 57.4627 9.40478 57.2987 9.47635C57.1346 9.54792 56.9909 9.65915 56.8804 9.80004C56.7954 9.89013 56.7308 9.99753 56.6911 10.1149C56.6514 10.2323 56.6375 10.3568 56.6504 10.48C56.6738 10.7322 56.756 10.9754 56.8904 11.19C57.0304 11.42 57.2304 11.72 57.5004 12.08C57.7681 12.4208 58.0088 12.7819 58.2204 13.16C58.3868 13.4462 58.4796 13.7692 58.4904 14.1C58.4911 14.4706 58.3518 14.8278 58.1004 15.1C57.8817 15.3675 57.5898 15.5656 57.2604 15.67C56.8985 15.7793 56.5124 15.7793 56.1504 15.67C55.6801 15.5177 55.2449 15.2729 54.8704 14.95C54.4668 14.5987 54.1283 14.179 53.8704 13.71Z" fill="#303030"/>
<path d="M63.9297 15.17L62.5197 13.17L63.0397 12.8L66.2897 17.44L65.7697 17.81L64.3597 15.81L59.1397 19.46L58.7197 18.85L63.9297 15.17Z" fill="#303030"/>
<path d="M61.6902 23.39C61.8687 22.7856 62.2156 22.2445 62.6902 21.83C63.1545 21.4141 63.7202 21.1279 64.3302 21C64.9521 20.8572 65.6007 20.8814 66.2102 21.07C66.7986 21.2645 67.3259 21.6092 67.7402 22.07C68.171 22.5656 68.4641 23.1656 68.5902 23.81C68.7559 24.4426 68.7559 25.1073 68.5902 25.74C68.4068 26.3421 68.0608 26.8819 67.5902 27.3C67.1131 27.727 66.5335 28.0233 65.9079 28.16C65.2823 28.2967 64.632 28.2691 64.0202 28.08C63.4274 27.8949 62.8977 27.5487 62.4902 27.08C62.0614 26.587 61.7684 25.9907 61.6402 25.35C61.4875 24.7033 61.5047 24.028 61.6902 23.39ZM63.0002 26.57C63.3341 26.9502 63.7668 27.2306 64.2502 27.38C64.7485 27.5245 65.2752 27.5417 65.7818 27.4298C66.2885 27.318 66.759 27.0808 67.1502 26.74C67.5193 26.4004 67.7919 25.9691 67.9402 25.49C68.0797 24.9841 68.0933 24.4517 67.98 23.9393C67.8667 23.4269 67.6299 22.95 67.2902 22.55C66.9417 22.1679 66.4957 21.8879 66.0002 21.74C65.4956 21.606 64.9648 21.606 64.4602 21.74C63.9511 21.8377 63.4798 22.0768 63.1002 22.43C62.7277 22.7708 62.4547 23.2062 62.3102 23.69C62.1744 24.1977 62.1744 24.7322 62.3102 25.24C62.4197 25.7361 62.6577 26.1947 63.0002 26.57Z" fill="#303030"/>
<path d="M60.9302 35L63.5202 34C63.5202 33.82 63.5802 33.64 63.6302 33.45L64.1202 31.64L62.0002 31.09L62.1902 30.38L68.9502 32.19L68.2702 34.72C68.1171 35.4582 67.7058 36.1177 67.1102 36.58C66.8366 36.7701 66.5227 36.8942 66.1931 36.9428C65.8635 36.9914 65.5271 36.963 65.2102 36.86C64.7277 36.7553 64.2952 36.4892 63.9843 36.1056C63.6734 35.722 63.5027 35.2438 63.5002 34.75L60.7402 35.75L60.9302 35ZM64.2802 35.28C64.3974 35.4925 64.5563 35.6792 64.7474 35.8287C64.9385 35.9782 65.1579 36.0876 65.3924 36.1502C65.6268 36.2128 65.8715 36.2273 66.1118 36.1929C66.352 36.1585 66.5828 36.0759 66.7902 35.95C67.2316 35.5955 67.5328 35.0958 67.6402 34.54L68.1202 32.74L64.7302 31.83L64.2502 33.63C64.0657 34.1664 64.0764 34.7507 64.2802 35.28Z" fill="#303030"/>
<path d="M57.3401 41.44L56.8301 41.05L59.8301 37.1L65.4101 41.33L62.5101 45.16L62.0001 44.77L64.4501 41.54L62.4501 40.03L60.2601 42.92L59.7601 42.54L62.0001 39.65L59.9301 38.08L57.3401 41.44Z" fill="#303030"/>
<path d="M55.0003 49.41L53.5703 49.49V49.01L55.0003 49L54.2303 47.81L54.6203 47.56L55.3803 48.76L56.0003 47.42L56.4303 47.65L55.7503 48.91L57.1803 48.83V49.32H55.7303L56.5003 50.51L56.1103 50.76L55.3503 49.56L54.6903 50.86L54.2703 50.62L55.0003 49.41Z" fill="#303030"/>
<path d="M42.0002 48.61L43.2102 49.28C43.4131 48.8904 43.6962 48.5481 44.0409 48.2757C44.3857 48.0034 44.7842 47.8072 45.2102 47.7C45.6077 47.5761 46.0257 47.5319 46.4402 47.57C46.7999 47.5976 47.1455 47.722 47.4402 47.93C47.7067 48.1309 47.9027 48.4109 48.0002 48.73C48.1208 49.1248 48.0995 49.5493 47.9402 49.93C47.6893 50.4474 47.351 50.9176 46.9402 51.32C47.2699 51.4972 47.5757 51.7156 47.8502 51.97C48.0388 52.1649 48.1792 52.4012 48.2602 52.66C48.3115 52.8618 48.3147 53.0728 48.2695 53.276C48.2243 53.4792 48.1321 53.669 48.0002 53.83C47.7333 54.2147 47.335 54.4885 46.8802 54.6C46.4809 54.7523 46.0395 54.7523 45.6402 54.6C45.4627 54.5237 45.3052 54.4072 45.1803 54.2597C45.0554 54.1122 44.9664 53.9377 44.9202 53.75C44.8154 53.4199 44.8404 53.0623 44.9902 52.75C45.2198 52.2954 45.5202 51.8802 45.8802 51.52L43.4702 50.18C43.3783 50.651 43.358 51.1331 43.4102 51.61H42.8002C42.7592 51.0227 42.827 50.4328 43.0002 49.87L41.7402 49.17L42.0002 48.61ZM43.7402 49.61L46.3902 51.08C46.7375 50.7484 47.0251 50.3593 47.2402 49.93C47.3501 49.6401 47.3501 49.32 47.2402 49.03C47.1949 48.8568 47.1072 48.6975 46.985 48.5666C46.8628 48.4357 46.7099 48.3372 46.5402 48.28C46.1251 48.1398 45.6754 48.1398 45.2602 48.28C44.921 48.3695 44.6055 48.5323 44.336 48.7569C44.0664 48.9815 43.8494 49.2625 43.7002 49.58L43.7402 49.61ZM47.5002 53.61C47.5656 53.4995 47.6065 53.3763 47.6203 53.2487C47.6341 53.1211 47.6204 52.9919 47.5802 52.87C47.519 52.6726 47.4089 52.4937 47.2602 52.35C47.0057 52.1353 46.7272 51.9508 46.4302 51.8C46.127 52.0998 45.8617 52.4357 45.6402 52.8C45.5193 53.0272 45.4907 53.2923 45.5602 53.54C45.592 53.6545 45.6476 53.7609 45.7234 53.8522C45.7993 53.9436 45.8936 54.0178 46.0002 54.07C46.2548 54.166 46.5356 54.166 46.7902 54.07C47.0621 53.9975 47.2995 53.831 47.4602 53.6L47.5002 53.61Z" fill="#303030"/>
<path d="M29.8096 56.3199L29.9496 49.3199H30.6596L30.5496 54.9199L33.3896 50.2599H33.7396L36.3996 54.9999L36.4996 49.4299H37.2096L37.0796 56.4299H36.4696L33.5296 51.1999L30.4196 56.3299L29.8096 56.3199Z" fill="#303030"/>
<path d="M26.33 49C26.7873 49.4358 27.1145 49.9901 27.2752 50.601C27.4359 51.212 27.4237 51.8556 27.24 52.46C27.0757 53.0789 26.7475 53.642 26.29 54.09C25.8454 54.527 25.2879 54.8317 24.68 54.97C24.0387 55.1147 23.3711 55.094 22.74 54.91C22.111 54.7564 21.5323 54.4429 21.06 54C20.6095 53.5697 20.2875 53.0227 20.13 52.42C19.9762 51.7969 19.9876 51.1446 20.1629 50.5273C20.3383 49.91 20.6716 49.3491 21.13 48.9C21.5667 48.4641 22.1123 48.1533 22.71 48C23.348 47.8557 24.0122 47.8763 24.64 48.06C25.2755 48.221 25.858 48.545 26.33 49ZM22.92 48.65C22.4308 48.7639 21.9837 49.0134 21.63 49.37C21.2616 49.7369 20.9991 50.1963 20.87 50.7C20.7305 51.2004 20.7305 51.7295 20.87 52.23C20.9879 52.7169 21.241 53.1606 21.6 53.51C21.9765 53.8782 22.4414 54.1433 22.95 54.28C23.4585 54.4095 23.9914 54.4095 24.5 54.28C24.9895 54.1596 25.4382 53.9111 25.8 53.56C26.1664 53.1916 26.4286 52.7327 26.56 52.23C26.6998 51.7262 26.6998 51.1938 26.56 50.69C26.432 50.2049 26.1765 49.7629 25.82 49.41C25.4415 49.0413 24.9723 48.7791 24.46 48.65C23.9561 48.5107 23.4239 48.5107 22.92 48.65Z" fill="#303030"/>
<path d="M15.3495 44L15.6195 46.75C15.7911 46.8233 15.958 46.9068 16.1195 47L17.7495 47.94L18.8495 46L19.4995 46.37L15.9995 52.4L13.7195 51.09C13.0456 50.7515 12.514 50.1844 12.2195 49.49C12.1108 49.1772 12.0742 48.8439 12.1123 48.5149C12.1504 48.1859 12.2622 47.8698 12.4395 47.59C12.672 47.1518 13.0405 46.8008 13.4895 46.59C13.9456 46.4011 14.4501 46.3626 14.9295 46.48L14.6395 43.54L15.3495 44ZM14.2095 47.16C13.9747 47.219 13.7541 47.3247 13.561 47.4708C13.368 47.617 13.2064 47.8006 13.086 48.0107C12.9655 48.2207 12.8887 48.4529 12.8601 48.6934C12.8315 48.9338 12.8517 49.1776 12.9195 49.41C13.154 49.9276 13.5603 50.3481 14.0695 50.6L15.6795 51.53L17.4295 48.53L15.8195 47.6C15.3568 47.2533 14.787 47.0799 14.2095 47.11V47.16Z" fill="#303030"/>
<path d="M9.43 39.31L9.88 38.86L13.33 42.41L8.33 47.29L5 43.85L5.46 43.4L8.29 46.31L10 44.58L7.52 42L8 41.54L10.53 44.14L12.39 42.33L9.43 39.31Z" fill="#303030"/>
<path d="M2.00035 35.38L2.24035 34L2.71035 34.07L2.44035 35.49L3.77035 35L3.93035 35.44L2.58035 35.9L3.69035 36.84L3.37035 37.2L2.30035 36.2L2.05035 37.62L1.57035 37.53L1.85035 36.11L0.510352 36.59L0.360352 36.2L1.70035 35.73L0.590352 34.8L0.920352 34.44L2.00035 35.38Z" fill="#303030"/>
</svg>
